# .PCD v0.7 - Point Cloud Data file format
VERSION 0.7
FIELDS x y z intensity
SIZE 4 4 4 4
TYPE F F F F
COUNT 1 1 1 1
WIDTH 40
HEIGHT 1
VIEWPOINT 0 0 0 1 0 0 0
POINTS 40
DATA ascii
1.2910951 -1.6231294 0 81
1.2906541 -1.608122 0 117
1.3020637 -1.6079152 0 255
1.3040056 -1.5960234 0 255
1.3045963 -1.5826023 0 255
1.314047 -1.5799701 0 255
1.3241422 -1.5780517 0 255
1.3310152 -1.5722589 0 255
1.3646026 -1.569796 0 255
1.3512125 -1.5681596 0 255
1.3378627 -1.5664364 0 255
1.3628676 -1.5540529 0 97
2.8133388 1.2087054 0 162
2.7896969 1.2129943 0 255
2.7779706 1.2223359 0 255
2.7780917 1.2368858 0 255
2.7708449 1.2481743 0 255
2.7653725 1.2602525 0 255
2.7698369 1.2769119 0 226
2.7624264 1.2881402 0 75
0.62092924 0.9381215 0 160
0.62835008 0.94039208 0 129
0.60859638 0.94616884 0 107
0.62066805 0.94667584 0 157
0.60392487 0.94797188 0 89
0.61598688 0.9485364 0 142
0.60298449 0.95567238 0 77
-1.2689873 1.4989887 0 72
-1.2924641 1.4999789 0 72
-1.2813609 1.5002812 0 72
-1.2592207 1.5006812 0 78
-1.3049012 1.5011175 0 71
5.6825418 1.5226318 0 161
5.6633015 1.5439925 0 255
5.6507292 1.5670851 0 255
5.6563497 1.5952549 0 255
6.6478095 1.3525113 0 120
6.6379285 1.3806903 0 99
-0.082481273 1.5738401 0 77
-0.077292562 1.6091447 0 78
