# .PCD v0.7 - Point Cloud Data file format
VERSION 0.7
FIELDS x y z intensity index
SIZE 4 4 4 4 4
TYPE F F F F I
COUNT 1 1 1 1 1
WIDTH 20
HEIGHT 1
VIEWPOINT 0 0 0 1 0 0 0
POINTS 20
DATA ascii
-1.6206503 -0.024800505 0 255 0
-1.6055266 -0.046590388 0 255 1
-1.6027848 -0.068512037 0 255 2
-1.6016918 -0.09047731 0 255 3
-1.5730699 0.35542867 0 255 441
-1.5731748 0.33285326 0 255 442
-1.5732517 0.3104001 0 255 443
-1.5776964 0.28886566 0 255 444
-1.5767033 0.26639873 0 255 445
-1.5791748 0.24459946 0 255 446
-1.5825381 0.22295059 0 255 447
-1.5847464 0.20114654 0 255 448
-1.5942061 0.18017736 0 255 449
-1.6062328 0.1592686 0 255 450
-1.6220225 0.13840841 0 255 451
-1.637249 0.11712422 0 255 452
-1.6511501 0.095388077 0 255 453
-1.6611835 0.073135197 0 255 454
-1.6555216 0.050158687 0 255 455
-1.6436862 0.027254071 0 255 456
