# .PCD v0.7 - Point Cloud Data file format
VERSION 0.7
FIELDS x y z intensity index
SIZE 4 4 4 4 4
TYPE F F F F I
COUNT 1 1 1 1 1
WIDTH 81
HEIGHT 1
VIEWPOINT 0 0 0 1 0 0 0
POINTS 81
DATA ascii
0.79546225 0.95643908 0 255 920
0.79064536 0.95912927 0 255 921
0.7877183 0.96411872 0 255 922
0.78413337 0.96832377 0 255 923
0.78115267 0.97329575 0 255 924
0.7775209 0.97747743 0 255 925
0.77386761 0.98164606 0 255 926
0.77019268 0.9858014 0 255 927
0.76833284 0.99231529 0 255 928
0.76643074 0.99883169 0 255 929
0.76448643 1.0053505 0 255 930
0.76189798 1.0110725 0 255 931
0.75927413 1.016791 0 255 932
0.75720954 1.0233097 0 255 933
0.75628519 1.0314425 0 255 934
0.75471646 1.0387777 0 255 935
0.75309801 1.0461187 0 255 936
0.7502684 1.0518372 0 255 937
0.7479803 1.0583674 0 255 938
0.74622309 1.0657167 0 255 939
0.74384588 1.0722491 0 255 940
0.74199229 1.0796051 0 255 941
0.74065143 1.087792 0 255 942
0.7381348 1.0943295 0 255 943
0.73613071 1.1016972 0 255 944
0.73407638 1.109068 0 255 945
0.73142332 1.1156056 0 255 946
0.72763789 1.1204637 0 255 947
0.72274202 1.123628 0 255 948
0.71729517 1.1259276 0 255 949
0.71184194 1.1282008 0 255 950
0.70585263 1.1295999 0 255 951
0.69986469 1.1309685 0 255 952
0.69387823 1.132306 0 255 953
0.68737477 1.1327581 0 255 954
0.68088049 1.1331751 0 255 955
0.67439574 1.133557 0 255 956
0.66792065 1.1339039 0 255 957
0.66246295 1.1359437 0 255 958
0.65650016 1.1370913 0 255 959
0.65053999 1.1382085 0 255 960
0.64458263 1.1392956 0 255 961
0.63813949 1.1394796 0 255 962
0.63267672 1.1413785 0 255 963
0.62720954 1.1432517 0 255 964
0.62078369 1.1433409 0 255 965
0.61484241 1.144277 0 255 966
0.60843533 1.1443 0 255 967
0.60297096 1.1460589 0 255 968
0.59750289 1.147792 0 255 969
0.5915733 1.1486101 0 255 970
0.58564788 1.1493983 0 255 971
0.58062714 1.1519427 0 255 972
0.57604152 1.1553602 0 255 973
0.57099485 1.1578627 0 255 974
0.56637573 1.1612419 0 255 975
0.5617379 1.1646028 0 255 976
0.55751204 1.1688478 0 255 977
0.55368638 1.1739826 0 255 978
0.54940391 1.1782 0 255 979
0.54551381 1.1833105 0 255 980
0.54158956 1.1884093 0 255 981
0.53722042 1.1925846 0 255 982
0.53241843 1.1958309 0 255 983
0.52800107 1.1999732 0 255 984
0.52355766 1.2040998 0 255 985
0.51948309 1.2091291 0 255 986
0.51498377 1.2132252 0 255 987
0.51007193 1.216383 0 255 988
0.50514233 1.2195209 0 255 989
0.5009523 1.2244899 0 255 990
0.49672851 1.2294457 0 255 991
0.49247101 1.2343879 0 255 992
0.48781329 1.2383857 0 255 993
0.48313007 1.2423663 0 255 994
0.47842142 1.2463298 0 255 995
0.47368729 1.2502757 0 255 996
0.4692781 1.2551407 0 255 997
0.46448928 1.2590528 0 255 998
0.45967525 1.2629468 0 255 999
0.45483607 1.2668228 0 255 1000